<?xml version="1.0" encoding="UTF-8"?>
<!-- Generated by Pixelmator Pro 3.3.1 -->
<svg width="48" height="48" viewBox="0 0 48 48" xmlns="http://www.w3.org/2000/svg" xmlns:xlink="http://www.w3.org/1999/xlink">
    <g id="Group">
        <path id="Path" fill="#faf3dd" stroke="#4d4d4d" stroke-width="1.09" stroke-linecap="round" stroke-linejoin="round" d="M 6.181639 39.227001 C 6.181639 40.65028 4.984641 42.5574 6.181639 42.5574 C 7.378638 42.5574 10.763499 41.438171 10.763499 40.014881 C 10.763499 38.591591 9.40359 36.290379 8.206561 36.290379 C 7.009528 36.290379 6.181639 37.803749 6.181639 39.227001 Z"/>
        <path id="path1" fill="#faf3dd" stroke="#4d4d4d" stroke-linecap="round" stroke-linejoin="round" d="M 30.366678 34.742599 C 32.777409 34.742512 35.690041 38.731159 39.25906 38.541439 C 39.723793 38.544487 40.140049 38.829632 40.31076 39.26189 C 40.7742 40.265465 40.764294 41.423756 40.28376 42.419258 C 40.089035 42.849731 39.660534 43.12653 39.188068 43.127041 L 29.952068 43.127041 C 29.502558 43.126781 29.091621 42.873047 28.890028 42.471275 C 28.688435 42.069504 28.730654 41.58839 28.999138 41.227871 C 30.211809 39.580761 30.366688 34.74263 30.366678 34.742599 Z"/>
        <path id="path2" fill="#faf3dd" stroke="#4d4d4d" stroke-linecap="round" stroke-linejoin="round" d="M 30.785078 22.178249 C 30.939629 21.322651 37.939369 33.639759 37.243828 36.04847 C 36.939461 37.23048 35.787636 37.988449 34.58165 37.800339 C 33.555389 35.512341 30.061329 34.008839 28.347929 31.00172 Z"/>
        <path id="path3" fill="#faf3dd" stroke="#4d4d4d" stroke-linecap="round" stroke-linejoin="round" d="M 9.78242 23.03763 C 13.154094 17.072287 18.272297 12.283012 24.448139 9.31443 C 24.440258 9.3181 24.433308 9.317719 24.425428 9.321541 C 27.920189 5.72654 33.306431 4.674408 38.229137 4.975021 C 38.80537 5.000019 39.381599 5.050171 39.94521 5.125328 C 40.114956 5.149555 40.282505 5.187237 40.446278 5.238022 C 40.921974 5.385273 41.344296 5.668274 41.661358 6.05225 C 42.107956 6.551506 42.353439 7.198704 42.350281 7.868549 L 42.350281 9.271461 C 42.33897 9.501511 42.296822 9.729004 42.224968 9.947838 C 41.891708 10.890007 41.178185 11.648964 40.258358 12.03968 C 37.525311 13.100319 35.11636 14.98214 33.31488 15.354622 C 32.763779 17.030651 32.432518 18.771116 32.329399 20.53241 C 32.095909 24.67021 33.284988 26.733459 33.582008 30.553289 C 33.743221 32.704342 33.592632 34.867401 33.134911 36.975361 C 32.345524 40.554863 29.164524 43.097713 25.499058 43.079361 L 13.96242 43.079361 C 11.24248 43.122509 8.70613 41.711315 7.308779 39.377361 L 7.277197 39.321548 C 4.066161 33.603161 8.045249 26.24844 9.78242 23.03763 Z"/>
        <path id="path4" fill="#666a86" stroke="#4d4d4d" stroke-linecap="round" stroke-linejoin="round" d="M 42.350281 8.144081 L 42.350281 7.868549 C 42.353439 7.198704 42.107956 6.551506 41.661358 6.05225 C 41.344299 5.668266 40.921974 5.385258 40.446278 5.237999 C 40.282505 5.187218 40.114956 5.149536 39.94521 5.125309 C 39.381599 5.050171 38.80537 5 38.229137 4.974998 C 37.45253 7.17963 40.446278 7.417622 42.350281 8.144081 Z"/>
        <path id="path5" fill="#faf3dd" stroke="#4d4d4d" stroke-linecap="round" stroke-linejoin="round" d="M 30.434408 6.592739 C 30.434408 6.592739 27.897409 3.682652 25.273529 5.433472 C 22.649649 7.184288 26.809248 9.493 26.809248 9.493"/>
        <path id="path6" fill="#faf3dd" stroke="none" d="M 26.053148 18.181999 C 26.310499 17.33979 32.018089 31.012581 31.033148 33.383579 C 30.592518 34.555943 29.402426 35.270359 28.160559 35.108002 C 27.409149 32.855801 23.013428 30.038811 21.661278 27.07877 Z"/>
        <path id="path7" fill="none" stroke="#4d4d4d" stroke-linecap="round" stroke-linejoin="round" d="M 26.053148 18.181999 C 26.310499 17.33979 32.018089 31.012581 31.033148 33.383579 C 30.592518 34.555943 29.402426 35.270359 28.160559 35.108002 C 27.409149 32.855801 23.013428 30.038811 21.661278 27.07877"/>
        <path id="path8" fill="#faf3dd" stroke="#4d4d4d" stroke-linecap="round" stroke-linejoin="round" d="M 15.079089 31.58827 C 15.079089 31.58827 21.341259 30.86735 23.149158 32.513039 C 24.076542 33.465813 24.815714 34.585098 25.327848 35.812099 C 25.937943 37.161297 27.360823 37.950539 28.828419 37.753792 C 30.193539 37.567459 31.251278 37.272419 32.15958 38.127991 C 32.241604 38.61404 32.294216 39.104599 32.317139 39.596989 C 32.361546 40.503151 32.03318 41.388008 31.408384 42.045834 C 30.78359 42.703655 29.916803 43.077129 29.009558 43.079418 L 19.644888 43.079418 C 17.047684 43.079426 14.690581 41.560181 13.617949 39.19482 L 12.963481 37.751629"/>
        <path id="path9" fill="none" stroke="#4d4d4d" stroke-linecap="round" stroke-linejoin="round" d="M 38.468948 40.536999 L 38.300949 41.122002"/>
        <path id="path10" fill="#e76f51" stroke="#4d4d4d" stroke-width="1.09" stroke-linecap="round" stroke-linejoin="round" d="M 24.142698 16.193001 C 23.945654 17.392838 23.945654 18.616783 24.142698 19.81662 C 24.405569 21.396259 24.884039 22.108919 24.545319 22.567881 C 24.223228 23.00432 23.163458 23.209669 19.646719 21.82975 C 19.649878 21.1259 19.717648 14.848339 21.659838 14.44828 C 22.012758 14.37561 22.812458 14.417702 24.142698 16.193001 Z"/>
        <path id="path11" fill="#e76f51" stroke="#4d4d4d" stroke-width="1.09" stroke-linecap="round" stroke-linejoin="round" d="M 25.296099 16.14831 C 24.496353 16.671612 23.773598 17.304026 23.148769 18.027229 C 21.894876 19.362865 21.075899 21.047621 20.800129 22.85873 C 20.688978 23.85994 20.875288 24.191401 20.531708 24.60343 C 19.752178 25.53824 17.430048 25.46681 16.371258 24.26791 C 16.169769 24.03978 15.585078 23.28507 15.834418 21.24822 C 16.224169 18.064421 18.473049 13.207539 21.605419 13.397049 C 23.360558 13.503239 24.657808 15.149429 25.296099 16.14831 Z"/>
        <path id="path12" fill="#e76f51" stroke="#4d4d4d" stroke-linecap="round" stroke-linejoin="round" d="M 33.7565 16.02458 C 33.916584 16.291969 34.007149 16.595194 34.019928 16.90658 C 34.01585 17.400789 33.75782 17.584339 33.54961 18.060949 C 33.06609 19.167761 33.728687 19.84659 33.19405 20.739731 C 33.027302 20.990805 32.813419 21.207136 32.564259 21.37673 C 31.715258 21.95701 29.984829 21.58736 23.656189 17.55179 C 23.144089 17.225241 19.440109 14.82645 18.921968 12.688129 C 18.813261 12.332771 18.830864 11.950745 18.971788 11.606888 C 19.291109 10.932892 20.086229 10.881752 21.240448 10.405209 C 22.963448 9.693848 22.883808 9.109211 23.656189 9.046349 C 25.207109 8.920052 25.362259 11.29071 27.934078 12.971939 C 30.003658 14.324909 33.053169 14.848938 33.7565 16.02458 Z"/>
        <path id="path13" fill="none" stroke="#4d4d4d" stroke-linecap="round" stroke-linejoin="round" d="M 33.273949 6.75 L 32.963947 7.016998"/>
    </g>
</svg>
